<?xml version="1.0" standalone="no"?>
<!DOCTYPE svg PUBLIC "-//W3C//DTD SVG 20010904//EN"
 "http://www.w3.org/TR/2001/REC-SVG-20010904/DTD/svg10.dtd">
<svg version="1.0" xmlns="http://www.w3.org/2000/svg"
 width="61.000000pt" height="48.000000pt" viewBox="0 0 61.000000 48.000000"
 preserveAspectRatio="xMidYMid meet">

<g transform="translate(0.000000,48.000000) scale(0.100000,-0.100000)"
fill="#000000" stroke="none">
<path d="M288 370 c-10 -15 -24 -20 -55 -20 -32 0 -45 -5 -53 -20 -8 -15 -17
-19 -36 -14 -17 4 -29 2 -35 -7 -17 -27 -8 -35 49 -47 118 -24 362 -8 362 24
0 8 -8 17 -17 20 -10 3 -25 10 -33 15 -40 24 -139 69 -153 69 -9 0 -22 -9 -29
-20z"/>
<path d="M56 238 c-15 -70 -12 -100 9 -114 81 -53 352 -57 476 -7 l40 16 -7
56 c-3 31 -10 60 -15 65 -4 5 -24 1 -46 -10 -71 -35 -413 -29 -413 7 0 20 -40
8 -44 -13z m199 -54 c24 -16 61 -15 128 2 27 6 28 5 25 -27 -2 -28 -7 -33 -23
-30 -63 11 -118 12 -128 2 -19 -19 -35 -12 -42 19 -6 27 -1 50 11 50 3 0 16
-7 29 -16z"/>
</g>
</svg>
