<?xml version="1.0" encoding="UTF-8"?>
<svg version="1.1" xmlns="http://www.w3.org/2000/svg" width="200" height="200">
<path d="M0 0 C3.74832687 1.42741517 6.38510587 3.86771978 9.3125 6.5234375 C10.56548276 7.62995287 11.81939783 8.73541335 13.07421875 9.83984375 C13.68958496 10.38527832 14.30495117 10.93071289 14.93896484 11.49267578 C17.28407594 13.54571216 19.69741105 15.50649182 22.125 17.4609375 C27.22977843 21.60340129 32.18372682 25.90462849 37.13818359 30.22412109 C41.64984733 34.14845408 46.24084506 37.95777787 50.88671875 41.72265625 C55.36462736 45.40116137 59.74349295 49.19383406 64.13671875 52.97265625 C71.49925665 59.304962 78.8993935 65.58819175 86.4375 71.7109375 C87.75234375 72.79181641 87.75234375 72.79181641 89.09375 73.89453125 C90.85297761 75.3384756 92.62431137 76.76777182 94.40625 78.18359375 C95.2415625 78.87324219 96.076875 79.56289062 96.9375 80.2734375 C97.68515625 80.87671875 98.4328125 81.48 99.203125 82.1015625 C100.6875 84.0234375 100.6875 84.0234375 100.421875 86.7578125 C100.05835938 87.87929687 100.05835938 87.87929687 99.6875 89.0234375 C95.18157175 88.51379032 92.90348156 86.89185293 89.5 83.9609375 C88.64019531 83.22746094 87.78039062 82.49398437 86.89453125 81.73828125 C86.41889236 81.33048935 85.94325348 80.92269745 85.45320129 80.50254822 C83.16060801 78.58206523 80.82458894 76.71924036 78.48706055 74.85375977 C77.58787399 74.13575699 76.68868744 73.41775421 75.76225281 72.67799377 C75.07758438 72.1319902 74.39291595 71.58598663 73.6875 71.0234375 C73.68603344 71.59696835 73.68456688 72.17049919 73.68305588 72.76140976 C73.6460056 86.71613685 73.58676181 100.67061767 73.50359726 114.62514877 C73.46378624 121.37347564 73.43140436 128.12168555 73.41650391 134.87011719 C73.40210913 141.38008018 73.36702156 147.88973934 73.31919098 154.39954376 C73.30432881 156.88585514 73.29645623 159.37221825 73.29561615 161.85857391 C73.29325937 165.33547317 73.26628205 168.81136035 73.23339844 172.28808594 C73.24094398 173.83743835 73.24094398 173.83743835 73.24864197 175.41809082 C73.23472916 176.36597473 73.22081635 177.31385864 73.20648193 178.29046631 C73.20095118 179.52382532 73.20095118 179.52382532 73.19530869 180.78210068 C72.48106997 183.93456652 71.26013293 185.10485867 68.6875 187.0234375 C66.0300808 187.52121544 66.0300808 187.52121544 62.94296265 187.51791382 C61.7707869 187.5263028 60.59861115 187.53469177 59.39091492 187.54333496 C58.10868546 187.53209595 56.82645599 187.52085693 55.50537109 187.50927734 C54.13858171 187.51142369 52.77179412 187.51530211 51.40501404 187.52078247 C47.69637723 187.53047281 43.9882221 187.51517824 40.27964354 187.49487638 C36.40084093 187.47730935 32.52205327 187.48083035 28.64321899 187.4815979 C22.13153012 187.47972522 15.62002772 187.46236347 9.10839844 187.43505859 C1.57386124 187.4035817 -5.9604719 187.39306331 -13.4950701 187.3945297 C-20.73847582 187.39574914 -27.98181493 187.38555021 -35.22520065 187.36894608 C-38.31049494 187.36187493 -41.39576566 187.35821881 -44.48106766 187.35715866 C-48.11067393 187.35515378 -51.74010802 187.34297719 -55.36965752 187.32282639 C-57.34207776 187.31417144 -59.31453331 187.31532155 -61.28697205 187.31671143 C-62.45350815 187.30818146 -63.62004425 187.29965149 -64.82192993 187.29086304 C-65.83992487 187.28751135 -66.85791981 187.28415966 -67.90676308 187.28070641 C-70.3125 187.0234375 -70.3125 187.0234375 -72.3125 185.0234375 C-72.57421303 182.99696159 -72.57421303 182.99696159 -72.5909729 180.45504761 C-72.60213638 179.49308472 -72.61329987 178.53112183 -72.62480164 177.54000854 C-72.62696182 176.4812149 -72.62912201 175.42242126 -72.63134766 174.33154297 C-72.64139328 173.21934387 -72.6514389 172.10714478 -72.66178894 170.96124268 C-72.6927738 167.27104223 -72.7096986 163.58091482 -72.7265625 159.890625 C-72.74526183 157.33756881 -72.7648343 154.78451889 -72.7852478 152.23147583 C-72.83144096 146.18960287 -72.86880218 140.14773722 -72.90192068 134.10578358 C-72.94011122 127.22793777 -72.98952934 120.35018709 -73.03990483 113.47242141 C-73.14328978 99.32283063 -73.23252875 85.17317859 -73.3125 71.0234375 C-73.73547363 71.39106201 -74.15844727 71.75868652 -74.59423828 72.13745117 C-76.5414521 73.82923604 -78.48947063 75.52009178 -80.4375 77.2109375 C-81.10265625 77.78908203 -81.7678125 78.36722656 -82.453125 78.96289062 C-83.77366154 80.10865027 -85.09671823 81.25151221 -86.42236328 82.39135742 C-87.6380676 83.44108403 -88.84555257 84.50044658 -90.04248047 85.5715332 C-91.41786637 86.77908043 -92.86053659 87.90914 -94.3125 89.0234375 C-97.1875 88.8359375 -97.1875 88.8359375 -99.3125 88.0234375 C-99.04150245 83.6555947 -97.34354546 81.6687112 -94.16162109 78.77490234 C-93.59266113 78.27941895 -93.02370117 77.78393555 -92.4375 77.2734375 C-91.85178223 76.74830566 -91.26606445 76.22317383 -90.66259766 75.68212891 C-86.21766979 71.7282735 -81.63067295 67.95860825 -76.9921875 64.234375 C-74.17996685 61.914088 -71.49452737 59.49272616 -68.8125 57.0234375 C-64.3426488 52.90964841 -59.72205107 49.05256453 -54.99609375 45.23828125 C-52.36541443 43.06710923 -49.83307576 40.82102393 -47.3125 38.5234375 C-43.01258209 34.60452498 -38.55330453 30.93172881 -34.03125 27.2734375 C-31.39102271 25.08842181 -28.8452028 22.83172359 -26.3125 20.5234375 C-21.97708915 16.5733965 -17.49611514 12.84941688 -12.921875 9.1796875 C-9.85586123 6.64609528 -6.98825064 3.93993042 -4.1640625 1.140625 C-2.3125 0.0234375 -2.3125 0.0234375 0 0 Z M-21.125 77.6484375 C-22.67499345 80.74842439 -22.80273888 82.59176532 -22.3125 86.0234375 C-20.76914971 88.97391303 -20.76914971 88.97391303 -18.3125 91.0234375 C-15.76837964 91.85700163 -15.76837964 91.85700163 -13.3125 91.0234375 C-10.84571922 88.22775261 -10.28505686 86.69579436 -10.4375 82.9609375 C-11.3406619 79.92889397 -11.99358149 78.17671898 -14.3125 76.0234375 C-17.4873727 75.38846296 -18.69356456 75.46852987 -21.125 77.6484375 Z M13.375 78.1484375 C11.40180425 81.51017841 11.11645251 83.18926147 11.6875 87.0234375 C12.72692845 89.46589497 12.72692845 89.46589497 14.6875 91.0234375 C17.1875 91.69010417 17.1875 91.69010417 19.6875 91.0234375 C22.76915998 88.16189609 23.51869197 85.15923416 23.6875 81.0234375 C22.73081967 78.09441447 22.73081967 78.09441447 20.6875 76.0234375 C17.09886588 75.10327491 16.10031785 75.64409137 13.375 78.1484375 Z M-46.3125 93.0234375 C-48.68290308 95.39384058 -48.65715793 96.08646503 -48.75 99.3359375 C-48.67114696 103.09055528 -48.37292972 103.93950733 -46.0625 107.1484375 C-43.56565236 109.2447475 -43.56565236 109.2447475 -41.125 108.9609375 C-39.13427761 108.04735088 -39.13427761 108.04735088 -37.3125 106.0234375 C-36.96002667 102.2872202 -37.0650644 99.65577293 -38.4375 96.1484375 C-40.21403514 93.76143238 -40.21403514 93.76143238 -43.375 93.0859375 C-44.344375 93.0653125 -45.31375 93.0446875 -46.3125 93.0234375 Z M42.5 94.8984375 C39.33978498 98.60351718 39.34807508 101.18663234 39.6875 106.0234375 C40.77424994 108.11327981 40.77424994 108.11327981 42.6875 109.0234375 C45.25905376 108.86271539 46.41677078 108.25405869 48.375 106.5859375 C50.5213476 104.03076178 50.84499722 102.28774024 50.875 99.0234375 C50.88917969 98.3221875 50.90335938 97.6209375 50.91796875 96.8984375 C50.85262323 94.77818812 50.85262323 94.77818812 48.6875 93.0234375 C44.71348646 92.58957658 44.71348646 92.58957658 42.5 94.8984375 Z M-24.625 124.5234375 C-28.42491251 130.15293752 -30.50305929 135.1871231 -30.3125 142.0234375 C-28.7791518 147.21978417 -26.97891008 150.22359145 -22.3125 153.0234375 C-14.90507449 155.48079346 -7.62424944 155.3555162 0.125 155.3359375 C1.39666016 155.35205078 2.66832031 155.36816406 3.97851562 155.38476562 C12.51218164 155.38918951 19.94371003 155.14326247 26.6875 149.5234375 C29.56148481 145.93095649 30.04910617 142.89392502 29.95703125 138.33203125 C29.06378308 130.68116651 25.49161167 124.87296693 19.90625 119.71484375 C5.49828054 108.73130365 -12.70678409 111.63887976 -24.625 124.5234375 Z " fill="#FF1655" transform="translate(99.3125,6.9765625)"/>
<path d="M0 0 C-0.08746284 1.43861294 -0.19565348 2.87597508 -0.3125 4.3125 C-0.37050781 5.11300781 -0.42851563 5.91351563 -0.48828125 6.73828125 C-1.08838825 9.39066259 -1.85708967 10.36503879 -4 12 C-4.66 12 -5.32 12 -6 12 C-5.7525 13.3303125 -5.7525 13.3303125 -5.5 14.6875 C-3.59853695 28.80442262 -3.59853695 28.80442262 -5.90625 34.06640625 C-8.60090886 37.51246037 -12.05491536 39.29644072 -16 41 C-16.495 41.495 -16.495 41.495 -17 42 C-16.34 43.32 -15.68 44.64 -15 46 C-17.64 46 -20.28 46 -23 46 C-23 45.34 -23 44.68 -23 44 C-22.01 44 -21.02 44 -20 44 C-20.66 43.34 -21.32 42.68 -22 42 C-22.4140625 38.9609375 -22.4140625 38.9609375 -22.625 35.375 C-22.73714844 33.59222656 -22.73714844 33.59222656 -22.8515625 31.7734375 C-22.90054688 30.85820313 -22.94953125 29.94296875 -23 29 C-23.95132813 28.70867188 -24.90265625 28.41734375 -25.8828125 28.1171875 C-29.28613216 26.89745138 -30.33141647 26.15176889 -32 23 C-32 21.68 -32 20.36 -32 19 C-30.35 18.67 -28.7 18.34 -27 18 C-26.8453125 16.3603125 -26.8453125 16.3603125 -26.6875 14.6875 C-26 11 -26 11 -24.875 9.28125 C-22.05228578 7.35239528 -19.68081983 7.7124509 -16.3125 7.8125 C-14.54326172 7.85310547 -14.54326172 7.85310547 -12.73828125 7.89453125 C-11.38283203 7.94673828 -11.38283203 7.94673828 -10 8 C-9.85884766 7.07960938 -9.85884766 7.07960938 -9.71484375 6.140625 C-8.82783084 3.48443335 -8.00206124 3.02810693 -5.5625 1.75 C-2 0 -2 0 0 0 Z " fill="#FFF9FA" transform="translate(111,22)"/>
<path d="M0 0 C2.32758311 0.93103324 3.74357132 1.65382128 5.25 3.6875 C6.46638897 7.43803267 6.79009505 11.41980989 5 15 C2.56183415 15.0809723 0.12635616 15.14046972 -2.3125 15.1875 C-3.34793945 15.22520508 -3.34793945 15.22520508 -4.40429688 15.26367188 C-9.5175964 15.33777767 -9.5175964 15.33777767 -11.98046875 13.61328125 C-13 12 -13 12 -13 10 C-12.39671875 9.69707031 -11.7934375 9.39414062 -11.171875 9.08203125 C-6.4567395 6.61038764 -2.99724856 4.56103041 0 0 Z " fill="#FF7EA0" transform="translate(106,53)"/>
<path d="M0 0 C2.40928735 0.96371494 3.76007009 1.65210163 5.25 3.8125 C6.11081611 6.32321365 6.14647297 8.36348649 6 11 C4.906875 11.309375 3.81375 11.61875 2.6875 11.9375 C0.44592006 12.58337897 -1.7869351 13.2623117 -4 14 C-4 12.68 -4 11.36 -4 10 C-2.35 9.67 -0.7 9.34 1 9 C1 7.68 1 6.36 1 5 C0.67 5.99 0.34 6.98 0 8 C-0.99 8.33 -1.98 8.66 -3 9 C-3.66 8.67 -4.32 8.34 -5 8 C-3.62845496 5.04590299 -2.01136276 2.55991624 0 0 Z " fill="#FF5D88" transform="translate(106,53)"/>
<path d="M0 0 C0.66 0.33 1.32 0.66 2 1 C2 1.99 2 2.98 2 4 C0.68 4.33 -0.64 4.66 -2 5 C-1.505 5.45375 -1.01 5.9075 -0.5 6.375 C1 8 1 8 1 10 C-1.64 10 -4.28 10 -7 10 C-7 9.34 -7 8.68 -7 8 C-6.01 8 -5.02 8 -4 8 C-4.66 7.34 -5.32 6.68 -6 6 C-5 3 -5 3 -2.5625 1.25 C-1.716875 0.8375 -0.87125 0.425 0 0 Z " fill="#FFD9E3" transform="translate(95,58)"/>
<path d="M0 0 C0.33 0.66 0.66 1.32 1 2 C2.65 1.67 4.3 1.34 6 1 C5.67 2.32 5.34 3.64 5 5 C2.69 5 0.38 5 -2 5 C-1 2 -1 2 0 0 Z " fill="#FF93AF" transform="translate(106,63)"/>
<path d="M0 0 C0.66 0.33 1.32 0.66 2 1 C2 1.99 2 2.98 2 4 C1.01 4.33 0.02 4.66 -1 5 C-1.66 4.67 -2.32 4.34 -3 4 C-3.33 4.66 -3.66 5.32 -4 6 C-4.66 6 -5.32 6 -6 6 C-5 3 -5 3 -2.5625 1.25 C-1.716875 0.8375 -0.87125 0.425 0 0 Z " fill="#FFB5C8" transform="translate(95,58)"/>
</svg>
