<?xml version="1.0" standalone="no"?>
<!DOCTYPE svg PUBLIC "-//W3C//DTD SVG 20010904//EN"
 "http://www.w3.org/TR/2001/REC-SVG-20010904/DTD/svg10.dtd">
<svg version="1.0" xmlns="http://www.w3.org/2000/svg"
 width="130.000000pt" height="75.000000pt" viewBox="0 0 130.000000 75.000000"
 preserveAspectRatio="xMidYMid meet">

<g transform="translate(0.000000,75.000000) scale(0.100000,-0.100000)"
fill="currentColor" stroke="none">
<path d="M981 646 c-16 -19 -6 -36 20 -36 15 0 20 6 17 22 -4 27 -21 33 -37
14z"/>
<path d="M713 598 c-48 -38 -53 -55 -18 -64 38 -10 18 -34 -88 -104 -50 -34
-115 -84 -144 -111 -28 -27 -60 -49 -70 -49 -10 0 -36 -9 -58 -20 -28 -14 -33
-19 -15 -16 14 3 51 8 84 12 l58 7 -7 -34 c-3 -19 -11 -46 -16 -61 -9 -21 -6
-36 10 -72 11 -25 24 -46 30 -46 18 0 22 20 7 35 -22 22 -29 54 -16 70 20 24
35 17 48 -19 14 -39 36 -61 51 -51 7 4 3 17 -11 36 l-22 29 26 27 c15 16 28
42 30 58 3 28 9 32 87 61 47 18 98 40 114 49 26 15 32 16 41 4 6 -8 29 -15 51
-17 22 -2 50 -10 62 -18 15 -9 24 -10 29 -3 9 15 -6 27 -61 48 -49 19 -71 41
-40 41 9 0 37 18 63 39 26 22 58 41 72 43 36 4 32 32 -5 36 -22 2 -43 -6 -73
-28 -48 -35 -72 -38 -95 -12 -26 28 -21 52 13 65 17 6 30 17 30 23 0 7 2 18 5
26 9 25 -10 36 -70 42 -57 6 -62 4 -102 -26z"/>
</g>
</svg>
