<?xml version="1.0" standalone="no"?>
<!DOCTYPE svg PUBLIC "-//W3C//DTD SVG 20010904//EN"
 "http://www.w3.org/TR/2001/REC-SVG-20010904/DTD/svg10.dtd">
<svg version="1.0" xmlns="http://www.w3.org/2000/svg"
 width="93.000000pt" height="72.000000pt" viewBox="0 0 93.000000 72.000000"
 preserveAspectRatio="xMidYMid meet">

<g transform="translate(0.000000,72.000000) scale(0.100000,-0.100000)"
fill="#000000" stroke="none">
<path d="M337 564 c-4 -4 -7 -58 -7 -121 0 -100 -2 -115 -20 -133 -11 -11 -24
-20 -30 -20 -5 0 -12 -12 -16 -27 -15 -74 -38 -115 -77 -144 l-40 -29 57 -25
c57 -25 130 -31 186 -16 35 9 62 87 56 163 -3 48 -9 63 -35 88 -30 31 -30 32
-33 148 -2 96 -6 117 -18 120 -9 1 -19 0 -23 -4z m83 -300 c15 -38 12 -119 -6
-163 -13 -33 -21 -39 -52 -44 -20 -4 -38 -5 -39 -3 -2 2 8 21 22 41 14 21 22
41 19 44 -4 3 -9 -1 -12 -9 -9 -26 -60 -70 -81 -70 -26 0 -27 12 -1 35 11 10
20 23 20 29 0 5 -15 -5 -33 -22 -22 -22 -39 -30 -50 -26 -22 8 -23 7 18 60 19
25 37 56 40 70 3 13 7 35 10 48 6 28 20 33 88 35 42 1 49 -2 57 -25z"/>
<path d="M333 253 c9 -2 25 -2 35 0 9 3 1 5 -18 5 -19 0 -27 -2 -17 -5z"/>
<path d="M567 423 c-4 -3 -7 -19 -7 -35 0 -19 -5 -28 -17 -28 -23 0 -93 -32
-93 -42 0 -5 6 -21 14 -36 7 -15 17 -66 21 -114 6 -79 10 -90 33 -109 23 -18
37 -20 91 -17 85 5 101 24 101 119 0 40 7 86 16 109 20 51 13 70 -26 70 -16 0
-30 5 -30 10 0 6 -12 10 -26 10 -21 0 -24 3 -19 20 11 34 -34 67 -58 43z m43
-28 c0 -18 -5 -25 -20 -25 -20 0 -28 28 -13 43 15 16 33 6 33 -18z m40 -125
c0 -44 -3 -50 -25 -56 -13 -3 -37 -2 -52 3 -25 8 -28 15 -31 56 l-3 47 55 0
56 0 0 -50z m-132 -52 c7 -7 12 -27 12 -45 0 -18 3 -33 8 -34 35 -4 109 -5
120 -1 7 2 12 21 12 43 0 28 4 39 15 39 13 0 15 -11 9 -67 -4 -38 -11 -74 -17
-80 -11 -15 -134 -18 -155 -4 -11 6 -29 98 -32 154 0 11 15 8 28 -5z m93 -18
c34 0 39 -3 39 -24 0 -22 -3 -23 -52 -21 -50 2 -53 3 -56 30 -3 22 0 27 13 21
9 -3 34 -6 56 -6z"/>
<path d="M677 404 c-4 -4 -7 -16 -7 -26 0 -14 6 -19 23 -16 14 2 22 10 22 23
0 20 -25 32 -38 19z"/>
</g>
</svg>
