<?xml version="1.0" standalone="no"?>
<!DOCTYPE svg PUBLIC "-//W3C//DTD SVG 20010904//EN"
 "http://www.w3.org/TR/2001/REC-SVG-20010904/DTD/svg10.dtd">
<svg version="1.0" xmlns="http://www.w3.org/2000/svg"
 width="109.000000pt" height="64.000000pt" viewBox="0 0 109.000000 64.000000"
 preserveAspectRatio="xMidYMid meet">

<g transform="translate(0.000000,64.000000) scale(0.100000,-0.100000)"
fill="#000000" stroke="none">
<path d="M266 435 c-11 -8 -28 -15 -38 -15 -26 0 -34 -28 -14 -48 9 -9 36 -22
59 -27 25 -7 43 -17 45 -27 3 -14 -7 -17 -50 -20 -51 -3 -53 -4 -51 -30 1 -23
-2 -28 -22 -28 -14 0 -29 -9 -35 -21 -16 -28 -6 -35 33 -22 19 7 52 8 84 4 42
-6 56 -4 75 11 26 19 48 23 48 8 0 -21 87 -10 195 25 17 5 24 -1 38 -30 9 -19
25 -38 34 -42 33 -12 73 -44 73 -59 0 -8 -9 -23 -20 -34 -12 -12 -18 -25 -15
-30 12 -20 26 -9 45 35 18 41 18 48 4 81 l-15 36 33 -7 c41 -9 59 -31 51 -63
-4 -18 -2 -23 8 -20 8 2 15 19 17 37 3 27 -4 39 -47 79 -55 51 -61 67 -33 76
25 8 109 96 92 96 -8 0 -35 -16 -59 -35 -24 -19 -46 -35 -48 -35 -2 0 -17 10
-34 23 -27 20 -45 23 -174 27 -79 3 -147 8 -150 12 -4 4 0 14 9 23 9 9 14 21
11 26 -10 15 -128 10 -149 -6z"/>
</g>
</svg>
