<?xml version="1.0" standalone="no"?>
<!DOCTYPE svg PUBLIC "-//W3C//DTD SVG 20010904//EN"
 "http://www.w3.org/TR/2001/REC-SVG-20010904/DTD/svg10.dtd">
<svg version="1.0" xmlns="http://www.w3.org/2000/svg"
 width="82.000000pt" height="73.000000pt" viewBox="0 0 82.000000 73.000000"
 preserveAspectRatio="xMidYMid meet">

<g transform="translate(0.000000,73.000000) scale(0.100000,-0.100000)"
fill="currentColor" stroke="none">
<path d="M154 575 c-4 -8 -3 -27 1 -43 4 -15 9 -40 11 -57 3 -30 18 -83 49
-180 29 -88 36 -157 19 -182 -13 -21 -13 -23 5 -23 10 0 21 -7 25 -15 3 -8 14
-15 25 -15 16 0 21 9 26 57 9 95 15 106 64 122 40 12 45 12 56 -3 7 -9 20 -16
28 -16 26 0 96 -53 103 -78 3 -12 1 -29 -6 -37 -10 -13 -8 -15 13 -15 14 0 30
-7 35 -17 6 -9 16 -14 26 -10 13 5 14 15 9 54 -3 26 -12 54 -20 61 -7 7 -16
24 -19 37 -8 32 1 140 17 198 13 48 12 48 -19 79 -35 35 -52 33 -29 -4 29 -46
30 -66 3 -93 -23 -22 -33 -25 -103 -25 -86 0 -144 13 -168 36 -19 20 -19 58 0
78 16 15 21 86 7 86 -5 0 -17 -9 -27 -20 -10 -11 -28 -20 -41 -20 -22 0 -64
34 -64 52 0 14 -20 9 -26 -7z"/>
</g>
</svg>
