<?xml version="1.0" standalone="no"?>
<!DOCTYPE svg PUBLIC "-//W3C//DTD SVG 20010904//EN"
 "http://www.w3.org/TR/2001/REC-SVG-20010904/DTD/svg10.dtd">
<svg version="1.0" xmlns="http://www.w3.org/2000/svg"
 width="55.000000pt" height="47.000000pt" viewBox="0 0 55.000000 47.000000"
 preserveAspectRatio="xMidYMid meet">

<g transform="translate(0.000000,47.000000) scale(0.100000,-0.100000)"
fill="#000000" stroke="none">
<path d="M57 434 c-4 -4 -7 -97 -7 -206 l0 -198 34 0 c30 0 35 4 38 27 4 39
28 42 28 4 0 -29 3 -31 35 -31 32 0 35 2 35 31 0 38 24 35 28 -5 3 -24 7 -27
35 -24 27 2 33 8 35 31 4 37 22 35 22 -3 0 -28 3 -30 34 -30 30 0 35 4 38 27
4 39 28 42 28 4 0 -29 3 -31 35 -31 l35 0 0 189 c0 104 -3 196 -6 205 -10 26
-53 20 -60 -9 -8 -31 -32 -33 -36 -2 -2 16 -10 22 -28 22 -16 0 -28 -8 -35
-22 -13 -29 -19 -29 -33 2 -12 26 -45 34 -58 14 -4 -7 -6 -83 -6 -171 2 -146
0 -159 -16 -156 -13 2 -18 15 -20 56 -2 30 2 60 8 67 8 9 8 15 0 20 -13 8 -13
108 0 121 7 7 7 21 -1 43 -9 27 -16 32 -38 29 -18 -2 -27 -10 -29 -25 -2 -13
-10 -23 -17 -23 -7 0 -15 10 -17 23 -2 15 -11 23 -28 25 -14 2 -29 0 -33 -4z
m292 -194 c0 -132 -1 -140 -20 -140 -18 0 -19 8 -19 140 0 132 1 140 20 140
18 0 19 -8 19 -140z m91 70 c0 -40 -4 -70 -10 -70 -6 0 -10 30 -10 70 0 40 4
70 10 70 6 0 10 -30 10 -70z m-292 -2 c-2 -35 -7 -63 -13 -63 -5 0 -11 28 -13
63 -2 51 0 62 13 62 13 0 15 -11 13 -62z m0 -140 c-2 -35 -7 -63 -13 -63 -5 0
-11 28 -13 63 -2 51 0 62 13 62 13 0 15 -11 13 -62z m292 -4 c0 -48 -3 -65
-12 -62 -13 5 -23 89 -14 114 13 35 26 9 26 -52z"/>
</g>
</svg>
