<?xml version="1.0" standalone="no"?>
<!DOCTYPE svg PUBLIC "-//W3C//DTD SVG 20010904//EN"
 "http://www.w3.org/TR/2001/REC-SVG-20010904/DTD/svg10.dtd">
<svg version="1.0" xmlns="http://www.w3.org/2000/svg"
 width="146.000000pt" height="115.000000pt" viewBox="0 0 146.000000 115.000000"
 preserveAspectRatio="xMidYMid meet">
<metadata>
Created by potrace 1.16, written by Peter Selinger 2001-2019
</metadata>
<g transform="translate(0.000000,115.000000) scale(0.100000,-0.100000)"
fill="currentColor" stroke="none">
<path d="M613 1018 c-10 -12 -42 -82 -43 -94 0 -4 224 -8 264 -4 2 0 -8 24
-23 53 l-26 52 -81 3 c-57 2 -84 -1 -91 -10z"/>
<path d="M361 867 c-13 -7 -40 -41 -60 -77 l-37 -65 -66 -3 c-74 -3 -96 -18
-79 -51 6 -11 26 -23 44 -26 17 -3 271 -5 564 -3 493 3 534 4 550 21 14 13 15
21 7 35 -8 13 -28 18 -77 20 l-67 3 -41 70 c-24 42 -50 74 -65 79 -38 15 -644
12 -673 -3z m299 -21 c0 -7 -9 -16 -20 -19 -11 -3 -20 -12 -20 -21 0 -13 13
-16 80 -16 67 0 80 3 80 16 0 9 -9 18 -20 21 -11 3 -20 12 -20 21 0 13 14 14
103 9 136 -9 143 -12 161 -58 9 -22 16 -44 16 -49 0 -19 -25 -10 -35 13 -17
38 -125 33 -125 -7 0 -8 -19 -15 -52 -20 -116 -13 -268 -2 -268 20 0 40 -108
45 -125 7 -5 -13 -15 -23 -22 -23 -17 0 -16 6 3 57 17 44 14 43 104 56 14 3
55 5 93 6 51 1 67 -2 67 -13z"/>
<path d="M727 603 c-4 -3 -7 -19 -7 -34 0 -18 -6 -28 -20 -32 -11 -3 -24 -16
-29 -29 -5 -13 -16 -30 -25 -37 -36 -30 -6 -61 58 -61 23 0 43 7 56 20 21 21
21 25 -13 74 -18 26 -19 29 -4 38 21 11 23 68 4 68 -8 0 -17 -3 -20 -7z"/>
<path d="M165 482 c-27 -6 -31 -12 -37 -57 -12 -92 -9 -330 4 -348 13 -17 43
-22 114 -19 32 2 43 6 47 22 5 20 14 20 407 20 393 0 402 0 407 -20 5 -20 42
-27 117 -22 58 5 59 9 54 214 -3 133 -7 191 -16 200 -9 9 -53 13 -148 13
l-135 0 -25 -32 c-35 -46 -84 -56 -254 -56 -170 0 -219 10 -254 56 l-25 32
-113 2 c-62 1 -126 -1 -143 -5z m176 -42 c49 -25 85 -55 101 -84 10 -18 7 -19
-48 -12 -83 10 -176 35 -196 53 -10 9 -18 30 -18 46 l0 30 58 -6 c32 -2 78
-15 103 -27z m879 2 c0 -16 -8 -36 -17 -45 -21 -18 -114 -43 -198 -53 l-60 -7
16 24 c20 30 101 86 143 98 17 5 50 10 74 10 40 1 42 -1 42 -27z m-286 -111
c10 -16 -60 -68 -116 -87 -68 -24 -168 -24 -236 0 -56 19 -126 71 -116 87 7
12 461 12 468 0z"/>
</g>
</svg>
