<?xml version="1.0" standalone="no"?>
<!DOCTYPE svg PUBLIC "-//W3C//DTD SVG 20010904//EN"
 "http://www.w3.org/TR/2001/REC-SVG-20010904/DTD/svg10.dtd">
<svg version="1.0" xmlns="http://www.w3.org/2000/svg"
 width="52.000000pt" height="73.000000pt" viewBox="0 0 52.000000 73.000000"
 preserveAspectRatio="xMidYMid meet">

<g transform="translate(0.000000,73.000000) scale(0.100000,-0.100000)"
fill="#000000" stroke="none">
<path d="M335 676 c-33 -33 -42 -73 -22 -93 14 -14 18 -14 33 -2 24 20 44 72
37 97 -7 28 -18 28 -48 -2z"/>
<path d="M211 603 c-18 -22 -22 -37 -18 -68 16 -127 27 -193 36 -218 9 -23 8
-29 -5 -34 -11 -4 -33 12 -71 50 -45 47 -60 57 -88 57 -46 0 -54 -18 -21 -47
18 -16 40 -23 66 -23 30 0 48 -7 72 -29 31 -28 33 -34 38 -112 3 -53 9 -84 18
-87 9 -3 12 17 12 78 0 45 5 90 11 102 6 11 30 28 53 39 36 15 48 16 79 7 31
-10 44 -9 73 6 29 13 34 19 25 30 -24 29 -60 28 -127 -4 -85 -40 -98 -39 -90
3 6 33 22 50 74 79 37 20 58 51 66 101 7 37 7 38 -21 31 -15 -3 -33 -13 -40
-21 -7 -9 -24 -13 -44 -11 -28 3 -34 8 -42 38 -5 19 -14 41 -21 48 -11 11 -17
9 -35 -15z"/>
<path d="M56 535 c-13 -34 43 -105 82 -105 24 0 6 61 -28 93 -35 31 -45 33
-54 12z"/>
<path d="M340 245 c7 -8 19 -15 27 -15 13 0 13 3 3 15 -7 8 -19 15 -27 15 -13
0 -13 -3 -3 -15z"/>
</g>
</svg>
