<?xml version="1.0" standalone="no"?>
<!DOCTYPE svg PUBLIC "-//W3C//DTD SVG 20010904//EN"
 "http://www.w3.org/TR/2001/REC-SVG-20010904/DTD/svg10.dtd">
<svg version="1.0" xmlns="http://www.w3.org/2000/svg"
 width="106.000000pt" height="81.000000pt" viewBox="0 0 106.000000 81.000000"
 preserveAspectRatio="xMidYMid meet">

<g transform="translate(0.000000,81.000000) scale(0.100000,-0.100000)"
fill="#000000" stroke="none">
<path d="M285 645 c-30 -30 -32 -64 -4 -99 34 -43 99 -35 125 16 40 77 -59
146 -121 83z"/>
<path d="M228 494 c-38 -20 -61 -103 -56 -196 4 -79 19 -98 75 -98 36 0 44
-18 18 -40 -29 -24 -11 -70 28 -70 26 0 166 149 167 176 0 38 -24 49 -81 36
-87 -20 -90 -19 -82 36 3 26 7 49 9 51 1 1 26 -5 54 -14 28 -9 81 -18 118 -18
65 -2 67 -1 67 23 0 24 -3 25 -75 31 -88 8 -160 34 -160 58 0 39 -36 51 -82
25z"/>
<path d="M856 375 c-3 -8 -2 -15 3 -15 5 0 14 7 21 15 10 12 10 15 -3 15 -8 0
-17 -7 -21 -15z"/>
<path d="M588 329 c-3 -20 0 -29 9 -29 7 0 13 -7 13 -15 0 -17 -36 -21 -42 -4
-3 9 -9 9 -26 0 -26 -14 -19 -41 12 -41 25 0 76 -21 76 -32 0 -3 -22 -26 -50
-51 -76 -68 -66 -89 17 -38 40 25 55 29 90 24 32 -4 50 0 76 16 47 29 51 27
43 -18 -9 -57 17 -67 38 -16 2 6 11 1 19 -10 27 -35 37 -7 23 60 -8 33 -16 67
-20 75 -4 10 4 26 24 45 28 26 40 55 23 55 -4 0 -21 -16 -39 -35 -24 -26 -40
-35 -65 -35 -19 -1 -45 -7 -59 -15 -14 -8 -40 -14 -59 -15 -26 0 -32 3 -27 16
3 9 -4 25 -19 40 -14 14 -25 29 -25 33 0 5 -6 11 -14 14 -10 4 -15 -4 -18 -24z"/>
<path d="M950 335 c0 -8 5 -15 10 -15 6 0 10 7 10 15 0 8 -4 15 -10 15 -5 0
-10 -7 -10 -15z"/>
</g>
</svg>
